<svg width="25" height="25" viewBox="0 0 25 25" fill="none" xmlns="http://www.w3.org/2000/svg">
<path d="M23.4375 0.390625H6.25C5.60391 0.390625 5.07812 0.916406 5.07812 1.5625V7.42188H2.34375C1.2668 7.42188 0.390625 8.29805 0.390625 9.375V18.75C0.390625 19.827 1.2668 20.7031 2.34375 20.7031H6.09844L5.57773 22.2656H4.29688C3.65078 22.2656 3.125 22.7914 3.125 23.4375V24.6094H14.8438V23.4375C14.8438 22.7914 14.318 22.2656 13.6719 22.2656H12.391L11.8703 20.7031H15.625C16.702 20.7031 17.5781 19.827 17.5781 18.75V18.3594H23.4375C24.0836 18.3594 24.6094 17.8336 24.6094 17.1875V1.5625C24.6094 0.916406 24.0836 0.390625 23.4375 0.390625ZM6.25 1.17188H23.4375C23.6527 1.17188 23.8281 1.34727 23.8281 1.5625V3.51562H5.85938V1.5625C5.85938 1.34727 6.03477 1.17188 6.25 1.17188ZM2.34375 8.20312H15.625C16.2711 8.20312 16.7969 8.72891 16.7969 9.375V16.7969H1.17188V9.375C1.17188 8.72891 1.69766 8.20312 2.34375 8.20312ZM17.5781 10.5469H22.2656V16.0156H17.5781V10.5469ZM14.0625 23.4375V23.8281H3.90625V23.4375C3.90625 23.2223 4.08164 23.0469 4.29688 23.0469H13.6719C13.8871 23.0469 14.0625 23.2223 14.0625 23.4375ZM11.5672 22.2656H6.40156L6.92227 20.7031H11.0465L11.5672 22.2656ZM15.625 19.9219H2.34375C1.69766 19.9219 1.17188 19.3961 1.17188 18.75V17.5781H16.7969V18.75C16.7969 19.3961 16.2711 19.9219 15.625 19.9219ZM23.4375 17.5781H17.5781V16.7969H23.0469V9.76562H17.5781V9.375C17.5781 8.29805 16.702 7.42188 15.625 7.42188H5.85938V4.29688H23.8281V17.1875C23.8281 17.4027 23.6527 17.5781 23.4375 17.5781Z" fill="black"/>
<path d="M7.03125 18.3594H7.8125V19.1406H7.03125V18.3594Z" fill="black"/>
<path d="M8.59375 18.3594H9.375V19.1406H8.59375V18.3594Z" fill="black"/>
<path d="M10.1562 18.3594H10.9375V19.1406H10.1562V18.3594Z" fill="black"/>
<path d="M8.20312 1.95312H8.98438V2.73438H8.20312V1.95312Z" fill="black"/>
<path d="M9.76562 1.95312H10.5469V2.73438H9.76562V1.95312Z" fill="black"/>
<path d="M6.64062 1.95312H7.42188V2.73438H6.64062V1.95312Z" fill="black"/>
<path d="M6.64062 5.07812H7.42188V5.85938H6.64062V5.07812Z" fill="black"/>
<path d="M8.20312 5.07812H23.0469V5.85938H8.20312V5.07812Z" fill="black"/>
<path d="M18.3594 6.64062H23.0469V7.42188H18.3594V6.64062Z" fill="black"/>
<path d="M18.3594 8.20312H23.0469V8.98438H18.3594V8.20312Z" fill="black"/>
<path d="M3.125 16.0156H10.9375C11.5836 16.0156 12.1094 15.4898 12.1094 14.8438V10.1562C12.1094 9.51016 11.5836 8.98438 10.9375 8.98438H3.125C2.47891 8.98438 1.95312 9.51016 1.95312 10.1562V14.8438C1.95312 15.4898 2.47891 16.0156 3.125 16.0156ZM2.73438 10.1562C2.73438 9.94102 2.90977 9.76562 3.125 9.76562H10.9375C11.1527 9.76562 11.3281 9.94102 11.3281 10.1562V14.8438C11.3281 15.059 11.1527 15.2344 10.9375 15.2344H3.125C2.90977 15.2344 2.73438 15.059 2.73438 14.8438V10.1562Z" fill="black"/>
<path d="M5.88176 14.7139L7.44312 10.0248L8.18453 10.2717L6.62317 14.9607L5.88176 14.7139Z" fill="black"/>
<path d="M8.86993 14.3386L10.7086 12.4999L8.86993 10.6613L8.31758 11.2136L9.60391 12.4999L8.31758 13.7863L8.86993 14.3386Z" fill="black"/>
<path d="M5.74493 13.7863L4.4586 12.4999L5.74493 11.2136L5.19258 10.6613L3.35391 12.4999L5.19258 14.3386L5.74493 13.7863Z" fill="black"/>
<path d="M12.8906 8.98438H16.0156V9.76562H12.8906V8.98438Z" fill="black"/>
<path d="M12.8906 10.5469H16.0156V11.3281H12.8906V10.5469Z" fill="black"/>
<path d="M12.8906 12.1094H16.0156V12.8906H12.8906V12.1094Z" fill="black"/>
<path d="M12.8906 13.6719H16.0156V14.4531H12.8906V13.6719Z" fill="black"/>
<path d="M13.6719 15.2344H14.4531V16.0156H13.6719V15.2344Z" fill="black"/>
<path d="M15.2344 15.2344H16.0156V16.0156H15.2344V15.2344Z" fill="black"/>
</svg>
