<svg width="25" height="25" viewBox="0 0 25 25" fill="none" xmlns="http://www.w3.org/2000/svg">
<g clip-path="url(#clip0)">
<path d="M22.6827 5.25568C22.3597 4.80383 22.0075 4.37357 21.6283 3.96771L20.4879 5.0362C20.8202 5.39114 21.1285 5.76766 21.4111 6.16326L22.6827 5.25568Z" fill="black"/>
<path d="M20.4137 2.83127C19.9849 2.47979 19.5335 2.15682 19.0625 1.86432L18.2408 3.19211C18.6545 3.44786 19.0509 3.7307 19.4272 4.03878L20.4137 2.83127Z" fill="black"/>
<path d="M23.5577 6.67174L22.1768 7.4028C24.9945 12.7443 22.9485 19.3586 17.607 22.1763C12.2655 24.9939 5.6512 22.948 2.83354 17.6065C0.0158805 12.265 2.06176 5.6507 7.40326 2.83299C8.97514 2.0038 10.7254 1.57027 12.5026 1.56983C14.0366 1.56558 15.554 1.88689 16.9546 2.51256L17.5919 1.08635C11.2884 -1.72438 3.89978 1.1071 1.08895 7.41066C-1.72177 13.7142 1.10965 21.1029 7.41327 23.9136C13.7168 26.7244 21.1055 23.893 23.9163 17.5894C24.6298 15.9892 24.9989 14.2568 24.9995 12.5047C24.999 10.4722 24.5042 8.47036 23.5577 6.67174Z" fill="black"/>
<path d="M19.6022 10.7449C19.6028 11.0903 19.5226 11.4311 19.3679 11.74L16.1726 17.5604L13.6357 10.1615H14.8448V8.59935H10.1584V10.1615H11.9845L12.7101 12.2773L9.83819 17.6901L7.25758 10.1615H8.59631V8.59935H3.90997V10.1615H5.60643L8.81969 19.5341H10.6271L13.4029 14.3011L15.1994 19.5341H16.87L20.6191 12.7233L20.7613 12.439C21.6993 10.5661 20.9413 8.28732 19.0684 7.34932C18.8198 7.22479 18.5582 7.12799 18.2884 7.06067L17.9096 8.57592C18.9051 8.82424 19.6032 9.71894 19.6022 10.7449Z" fill="black"/>
</g>
<defs>
<clipPath id="clip0">
<rect width="25" height="25" fill="white"/>
</clipPath>
</defs>
</svg>
