<svg width="25" height="25" viewBox="0 0 25 25" fill="none" xmlns="http://www.w3.org/2000/svg">
<path d="M22.6562 17.5781H16.7969V8.51016C16.9391 8.43711 17.0773 8.35859 17.2098 8.2707L18.607 10.0172C17.9719 10.6535 17.5781 11.5316 17.5781 12.5C17.5781 14.4387 19.1551 16.0156 21.0938 16.0156C23.0324 16.0156 24.6094 14.4387 24.6094 12.5C24.6094 10.5617 23.0324 8.98438 21.0938 8.98438C20.4043 8.98438 19.7625 9.18672 19.2191 9.53125L17.8188 7.78086C18.5438 7.08359 19.025 6.13633 19.1211 5.07812H20.0711H20.4617L21.243 6.64062H24.4602L23.4836 4.6875L24.4602 2.73438H21.243L20.4617 4.29688H20.0711H19.1211C18.9227 2.11016 17.0813 0.390625 14.8438 0.390625C13.7973 0.390625 12.8383 0.767578 12.0922 1.39141C12.0082 0.826563 11.525 0.390625 10.9375 0.390625H6.25C5.74141 0.390625 5.31172 0.718359 5.15 1.17188H2.34375C1.2668 1.17188 0.390625 2.04805 0.390625 3.125V22.6562C0.390625 23.7332 1.2668 24.6094 2.34375 24.6094H14.8438C15.9207 24.6094 16.7969 23.7332 16.7969 22.6562V21.4844H22.6562C23.7332 21.4844 24.6094 20.6082 24.6094 19.5312C24.6094 18.4543 23.7332 17.5781 22.6562 17.5781ZM23.8281 12.5C23.8281 14.0074 22.6012 15.2344 21.0938 15.2344C19.5863 15.2344 18.3594 14.0074 18.3594 12.5C18.3594 10.9922 19.5863 9.76562 21.0938 9.76562C22.6012 9.76562 23.8281 10.9922 23.8281 12.5ZM21.7258 5.85938L21.3352 5.07812H22.2656H22.8055L23.1961 5.85938H21.7258ZM21.7258 3.51562H23.1961L22.8055 4.29688H22.2656H21.3352L21.7258 3.51562ZM5.15 3.51562C5.31172 3.96914 5.74141 4.29688 6.25 4.29688H10.5668C10.5551 4.42578 10.5469 4.55547 10.5469 4.6875C10.5469 5.93867 11.0879 7.06328 11.9441 7.84922L11.3484 8.63086C10.5539 8.11523 9.60937 7.8125 8.59375 7.8125C5.79375 7.8125 3.51562 10.0906 3.51562 12.8906C3.51562 15.6906 5.79375 17.9688 8.59375 17.9688C11.3938 17.9688 13.6719 15.6906 13.6719 12.8906C13.6719 11.3863 13.0105 10.0367 11.968 9.10625L12.5645 8.32344C13.1219 8.67422 13.7633 8.90195 14.4531 8.96445V17.5781H12.4289L9.60352 18.6379C9.2332 18.777 8.98438 19.1359 8.98438 19.5312C8.98438 19.9266 9.2332 20.2855 9.60352 20.425L12.4289 21.4844H14.4531V22.2656H2.73438V3.51562H5.15ZM10.5469 14.8438H9.76562V11.7188H10.5469V14.8438ZM8.98438 14.8438H8.20312V12.5V10.9375H8.98438V14.8438ZM7.42188 14.8438H6.64062V13.2812H7.42188V14.8438ZM11.9059 15.625C11.1172 16.5785 9.92539 17.1875 8.59375 17.1875C7.26211 17.1875 6.0707 16.5785 5.28164 15.625H11.9059ZM12.4164 14.8438H11.3281V10.9375H9.76562V10.1562H7.42188V12.5H5.85938V14.8438H4.77109C4.47031 14.257 4.29688 13.5941 4.29688 12.8906C4.29688 10.5215 6.22461 8.59375 8.59375 8.59375C10.9629 8.59375 12.8906 10.5215 12.8906 12.8906C12.8906 13.5941 12.7172 14.257 12.4164 14.8438V14.8438ZM9.87813 19.6938C9.81094 19.6684 9.76562 19.6031 9.76562 19.5312C9.76562 19.4594 9.81094 19.3941 9.87813 19.3691L12.1094 18.5324V20.5301L9.87813 19.6938ZM12.8906 20.7031V19.9219H20.7031V20.7031H12.8906ZM20.7031 19.1406H12.8906V18.3594H20.7031V19.1406ZM16.0156 17.5781H15.2344V8.96445C15.5031 8.94023 15.7637 8.88945 16.0156 8.81758V17.5781ZM14.8438 1.17188C16.6504 1.17188 18.1414 2.5418 18.3363 4.29688H16.7574C16.5758 3.40664 15.7867 2.73438 14.8438 2.73438C13.7668 2.73438 12.8906 3.61055 12.8906 4.6875C12.8906 5.76445 13.7668 6.64062 14.8438 6.64062C15.7867 6.64062 16.5758 5.96836 16.7574 5.07812H18.3363C18.1414 6.8332 16.6504 8.20312 14.8438 8.20312C12.9051 8.20312 11.3281 6.62578 11.3281 4.6875C11.3281 2.74922 12.9051 1.17188 14.8438 1.17188ZM15.9438 5.07812C15.782 5.53164 15.3523 5.85938 14.8438 5.85938C14.1977 5.85938 13.6719 5.33359 13.6719 4.6875C13.6719 4.04141 14.1977 3.51562 14.8438 3.51562C15.3523 3.51562 15.782 3.84336 15.9438 4.29688H14.4531V5.07812H15.9438ZM5.85938 1.5625C5.85938 1.34727 6.03438 1.17188 6.25 1.17188H10.9375C11.1531 1.17188 11.3281 1.34727 11.3281 1.5625V2.22461C11.0555 2.6125 10.8469 3.04687 10.7141 3.51367L6.25 3.51562C6.03438 3.51562 5.85938 3.34023 5.85938 3.125V1.5625ZM16.0156 22.6562C16.0156 23.3023 15.4898 23.8281 14.8438 23.8281H2.34375C1.69766 23.8281 1.17188 23.3023 1.17188 22.6562V3.125C1.17188 2.47891 1.69766 1.95312 2.34375 1.95312H5.07812V2.73438H2.73438C2.30352 2.73438 1.95312 3.08477 1.95312 3.51562V22.2656C1.95312 22.6965 2.30352 23.0469 2.73438 23.0469H14.4531C14.884 23.0469 15.2344 22.6965 15.2344 22.2656V21.4844H16.0156V22.6562ZM22.6562 20.7031H21.4844V18.3594H22.6562C23.3023 18.3594 23.8281 18.8852 23.8281 19.5312C23.8281 20.1773 23.3023 20.7031 22.6562 20.7031Z" fill="black"/>
<path d="M19.1406 13.4305C19.1406 13.9941 19.5996 14.4531 20.1633 14.4531C20.3211 14.4531 20.4797 14.4156 20.6207 14.3453L22.482 13.4148C22.8301 13.2402 23.0469 12.8895 23.0469 12.5C23.0469 12.1102 22.8301 11.7594 22.4816 11.5852L20.6207 10.6547C20.4797 10.5844 20.3211 10.5469 20.1633 10.5469C19.5996 10.5469 19.1406 11.0055 19.1406 11.5695V13.4305ZM19.9219 11.5695C19.9219 11.4363 20.0301 11.3281 20.1633 11.3281C20.2008 11.3281 20.2379 11.3367 20.2711 11.3535L22.132 12.284C22.2145 12.3254 22.2656 12.4078 22.2656 12.5C22.2656 12.5918 22.2145 12.6746 22.132 12.716L20.2711 13.6465C20.1203 13.7238 19.9219 13.6008 19.9219 13.4305V11.5695Z" fill="black"/>
<path d="M3.51562 19.1406H8.20312V19.9219H3.51562V19.1406Z" fill="black"/>
<path d="M3.51562 20.7031H8.20312V21.4844H3.51562V20.7031Z" fill="black"/>
<path d="M3.51562 5.07812H4.29688V5.85938H3.51562V5.07812Z" fill="black"/>
<path d="M5.07812 5.07812H9.76562V5.85938H5.07812V5.07812Z" fill="black"/>
<path d="M3.51562 6.64062H4.29688V7.42188H3.51562V6.64062Z" fill="black"/>
<path d="M5.07812 6.64062H9.76562V7.42188H5.07812V6.64062Z" fill="black"/>
</svg>
