<svg width="25" height="25" viewBox="0 0 25 25" fill="none" xmlns="http://www.w3.org/2000/svg">
<path d="M2.41937 22.5806H3.22582V23.387H2.41937V22.5806Z" fill="black"/>
<path d="M4.03226 22.5806H4.83871V23.387H4.03226V22.5806Z" fill="black"/>
<path d="M5.64514 22.5806H6.45159V23.387H5.64514V22.5806Z" fill="black"/>
<path d="M19.3548 22.5806H22.5806V23.387H19.3548V22.5806Z" fill="black"/>
<path d="M24.1935 20.9677V7.66129C24.1935 6.54966 23.289 5.64516 22.1774 5.64516H20.9677C20.9677 2.53217 18.4356 0 15.3226 0C12.2096 0 9.67742 2.53217 9.67742 5.64516H2.82258C1.71095 5.64516 0.806452 6.54966 0.806452 7.66129V20.9677H0V22.9839C0 24.0955 0.904502 25 2.01613 25H22.9839C24.0955 25 25 24.0955 25 22.9839V20.9677H24.1935ZM22.1774 6.45161C22.8443 6.45161 23.3871 6.99443 23.3871 7.66129V20.9677H22.5806V8.06452C22.5806 7.61975 22.219 7.25806 21.7742 7.25806H20.7299C20.8077 6.99679 20.8638 6.72706 20.9032 6.45161H22.1774ZM10.7182 4.16339L14.9979 5.94679L16.4633 10.3423C16.0967 10.4315 15.7162 10.4839 15.3226 10.4839C12.6544 10.4839 10.4839 8.31338 10.4839 5.64516C10.4839 5.12813 10.5674 4.6306 10.7182 4.16339V4.16339ZM17.2294 10.0907L15.7839 5.75404L19.0136 2.5241C19.7281 3.36737 20.1613 4.45596 20.1613 5.64516C20.1613 7.63629 18.9516 9.34921 17.2294 10.0907ZM15.3226 0.806452C16.5118 0.806452 17.6004 1.2396 18.444 1.95372L15.2287 5.16889L11.0306 3.42013C11.8375 1.86945 13.4569 0.806452 15.3226 0.806452ZM1.6129 7.66129C1.6129 6.99443 2.15572 6.45161 2.82258 6.45161H9.742C9.78138 6.72706 9.8371 6.99679 9.91526 7.25806H3.22581C2.78104 7.25806 2.41935 7.61975 2.41935 8.06452V20.9677H1.6129V7.66129ZM24.1935 22.9839C24.1935 23.6507 23.6507 24.1935 22.9839 24.1935H2.01613C1.34927 24.1935 0.806452 23.6507 0.806452 22.9839V21.7742H9.11373C9.69356 22.2956 10.4354 22.5806 11.2214 22.5806H13.779C14.565 22.5806 15.3068 22.2956 15.8867 21.7742H20.9677V20.9677H15.5588L15.4407 21.0859C14.9967 21.5299 14.4069 21.7742 13.7786 21.7742H11.221C10.5931 21.7742 10.0029 21.5299 9.55889 21.0859L9.44115 20.9677H3.22581V8.06452H10.2299C11.1383 9.96862 13.0763 11.2903 15.3226 11.2903C17.5689 11.2903 19.5068 9.96862 20.4153 8.06452H21.7742V21.7742H24.1935V22.9839Z" fill="black"/>
<path d="M19.7581 16.9355C19.5106 16.9355 19.2802 17.0109 19.0883 17.139L17.6815 16.0843C17.7173 15.9701 17.7419 15.8512 17.7419 15.7258C17.7419 15.0589 17.1991 14.5161 16.5323 14.5161C15.8654 14.5161 15.3226 15.0589 15.3226 15.7258C15.3226 15.8646 15.3507 15.9959 15.3939 16.1202L13.1356 17.927C12.9505 17.8116 12.7339 17.7419 12.5 17.7419C12.2287 17.7419 11.9806 17.835 11.7786 17.9863L10.0399 16.827C10.0641 16.7323 10.0806 16.6346 10.0806 16.5322C10.0806 15.8654 9.53783 15.3226 8.87097 15.3226C8.20411 15.3226 7.66129 15.8654 7.66129 16.5322C7.66129 16.6346 7.67783 16.7323 7.70205 16.827L5.96333 17.9863C5.76132 17.8347 5.51325 17.7419 5.24193 17.7419C4.57508 17.7419 4.03226 18.2847 4.03226 18.9516C4.03226 19.6185 4.57508 20.1613 5.24193 20.1613C5.90879 20.1613 6.45161 19.6185 6.45161 18.9516C6.45161 18.8492 6.43507 18.7516 6.41086 18.6569L8.14957 17.4976C8.35158 17.6492 8.59966 17.7419 8.87097 17.7419C9.14228 17.7419 9.39036 17.6492 9.59236 17.4976L11.3311 18.6569C11.3069 18.7516 11.2903 18.8496 11.2903 18.9516C11.2903 19.6185 11.8331 20.1613 12.5 20.1613C13.1669 20.1613 13.7097 19.6185 13.7097 18.9516C13.7097 18.8128 13.6815 18.6815 13.6384 18.5572L15.8967 16.7504C16.0818 16.8658 16.2984 16.9355 16.5323 16.9355C16.7797 16.9355 17.0101 16.8601 17.2021 16.7319L18.6088 17.7866C18.573 17.9008 18.5484 18.0197 18.5484 18.1451C18.5484 18.812 19.0912 19.3548 19.7581 19.3548C20.4249 19.3548 20.9677 18.812 20.9677 18.1451C20.9677 17.4783 20.4249 16.9355 19.7581 16.9355V16.9355ZM5.24193 19.3548C5.01985 19.3548 4.83871 19.1737 4.83871 18.9516C4.83871 18.7295 5.01985 18.5484 5.24193 18.5484C5.46402 18.5484 5.64516 18.7295 5.64516 18.9516C5.64516 19.1737 5.46402 19.3548 5.24193 19.3548ZM8.87097 16.9355C8.64888 16.9355 8.46774 16.7543 8.46774 16.5322C8.46774 16.3102 8.64888 16.129 8.87097 16.129C9.09306 16.129 9.27419 16.3102 9.27419 16.5322C9.27419 16.7543 9.09306 16.9355 8.87097 16.9355ZM12.5 19.3548C12.2779 19.3548 12.0968 19.1737 12.0968 18.9516C12.0968 18.7295 12.2779 18.5484 12.5 18.5484C12.7221 18.5484 12.9032 18.7295 12.9032 18.9516C12.9032 19.1737 12.7221 19.3548 12.5 19.3548ZM16.5323 16.129C16.3102 16.129 16.129 15.9479 16.129 15.7258C16.129 15.5037 16.3102 15.3226 16.5323 15.3226C16.7543 15.3226 16.9355 15.5037 16.9355 15.7258C16.9355 15.9479 16.7543 16.129 16.5323 16.129ZM19.7581 18.5484C19.536 18.5484 19.3548 18.3672 19.3548 18.1451C19.3548 17.9231 19.536 17.7419 19.7581 17.7419C19.9802 17.7419 20.1613 17.9231 20.1613 18.1451C20.1613 18.3672 19.9802 18.5484 19.7581 18.5484Z" fill="black"/>
<path d="M10.4839 8.87097H4.03226V14.5161H10.4839V8.87097ZM9.67742 13.7097H4.83871V9.67742H9.67742V13.7097Z" fill="black"/>
<path d="M5.64514 10.4839H8.87095V11.2903H5.64514V10.4839Z" fill="black"/>
<path d="M5.64514 12.0968H8.87095V12.9033H5.64514V12.0968Z" fill="black"/>
<path d="M11.2903 12.9032H12.0968V13.7097H11.2903V12.9032Z" fill="black"/>
<path d="M12.9032 12.9032H20.9677V13.7097H12.9032V12.9032Z" fill="black"/>
</svg>
