<svg width="25" height="25" viewBox="0 0 25 25" fill="none" xmlns="http://www.w3.org/2000/svg">
<path d="M22.9167 0H9.58334C8.89304 0 8.33334 0.559692 8.33334 1.25V9.16667H9.16668V1.25C9.16668 1.0199 9.35324 0.833333 9.58334 0.833333H19.1667V3.75C19.1667 3.91846 19.2682 4.07043 19.4238 4.13493C19.5795 4.19942 19.7587 4.16362 19.8779 4.0446L20.8333 3.08919L21.7887 4.0446C21.908 4.16362 22.0872 4.19942 22.2428 4.13493C22.3985 4.07043 22.5 3.91846 22.5 3.75V0.833333H22.9167C23.1468 0.833333 23.3333 1.0199 23.3333 1.25V20.8333C23.3333 21.0634 23.1468 21.25 22.9167 21.25H15.4167V22.0833H22.9167C23.607 22.0833 24.1667 21.5236 24.1667 20.8333V1.25C24.1667 0.559692 23.607 0 22.9167 0ZM21.6667 2.74414L21.1279 2.2054C20.9652 2.04285 20.7015 2.04285 20.5387 2.2054L20 2.74414V0.833333H21.6667V2.74414Z" fill="black"/>
<path d="M13.5742 20.0612C13.679 19.845 13.7705 19.6222 13.8478 19.3945L15.4759 19.162C15.6809 19.1327 15.8331 18.9571 15.8333 18.75V16.25C15.8333 16.0427 15.6809 15.8669 15.4759 15.8374L13.8478 15.6051C13.7705 15.3774 13.679 15.1546 13.5742 14.9383L14.5591 13.6251C14.6836 13.4593 14.6673 13.2271 14.5209 13.0804L12.7525 11.3125C12.606 11.1662 12.374 11.1497 12.2082 11.2738L10.8941 12.2587C10.6779 12.1537 10.4551 12.0624 10.2274 11.9851L9.99489 10.3575C9.9656 10.1526 9.79022 10.0004 9.58331 10H7.08331C6.87579 10 6.70001 10.1526 6.67072 10.3579L6.43838 11.9855C6.21071 12.0628 5.98794 12.1541 5.77167 12.2591L4.45839 11.2742C4.29258 11.1501 4.06065 11.1666 3.91416 11.3129L2.14577 13.0808C1.99949 13.2275 1.98322 13.4593 2.10752 13.6251L3.09243 14.9383C2.98765 15.1546 2.8961 15.3774 2.81879 15.6051L1.19078 15.8374C0.985697 15.8669 0.833313 16.0427 0.833313 16.25V18.75C0.833313 18.9573 0.985697 19.1331 1.19078 19.1626L2.81879 19.3949C2.8961 19.6226 2.98765 19.8454 3.09243 20.0616L2.10752 21.3749C1.98301 21.5407 1.99929 21.7729 2.14577 21.9195L3.91416 23.6875C4.06065 23.8338 4.29258 23.8503 4.45839 23.7262L5.77207 22.7413C5.98834 22.8463 6.21112 22.9376 6.43878 23.0149L6.67133 24.6425C6.70062 24.8476 6.8762 24.9998 7.08331 25H9.58331C9.79083 25 9.96661 24.8474 9.99591 24.6421L10.2283 23.0145C10.4559 22.9372 10.6787 22.8459 10.895 22.7409L12.2082 23.7258C12.374 23.8499 12.606 23.8334 12.7525 23.6871L14.5209 21.9191C14.6673 21.7724 14.6836 21.5403 14.5591 21.3745L13.5742 20.0612ZM12.4192 22.8424L11.1855 21.9167C11.0547 21.8184 10.8785 21.806 10.735 21.8845C10.4177 22.0577 10.0824 22.1956 9.73488 22.2957C9.57802 22.3417 9.46226 22.4752 9.43907 22.6371L9.22199 24.1667H7.44464L7.22675 22.6379C7.20355 22.476 7.08779 22.3425 6.93073 22.2967C6.58344 22.1964 6.24815 22.0585 5.93077 21.8854C5.78733 21.8068 5.61115 21.8192 5.48033 21.9175L4.2466 22.8424L2.99091 21.5859L3.91579 20.3522C4.01406 20.2213 4.02647 20.0452 3.94794 19.9017C3.7748 19.5843 3.63706 19.2489 3.53656 18.9016C3.49099 18.7447 3.35752 18.6291 3.19578 18.6057L1.66665 18.3887V16.6113L3.19578 16.3928C3.35752 16.3696 3.49099 16.2541 3.53656 16.097C3.63706 15.7497 3.7748 15.4144 3.94794 15.097C4.02647 14.9536 4.01406 14.7774 3.91579 14.6466L2.99091 13.4129L4.24742 12.1562L5.48114 13.0813C5.61196 13.1795 5.78815 13.1919 5.93158 13.1134C6.24917 12.9405 6.58445 12.8025 6.93174 12.702C7.0886 12.6562 7.20437 12.5228 7.22756 12.3608L7.44464 10.8333H9.22199L9.43988 12.3621C9.46307 12.524 9.57884 12.6575 9.7359 12.7032C10.083 12.804 10.4183 12.9417 10.7359 13.1146C10.8793 13.1932 11.0555 13.1807 11.1863 13.0825L12.42 12.1576L13.6767 13.4141L12.75 14.6478C12.6518 14.7786 12.6393 14.9548 12.7179 15.0983C12.8908 15.4156 13.0287 15.7511 13.129 16.0984C13.1748 16.2553 13.3081 16.3708 13.47 16.3942L14.9992 16.6125V18.3901L13.47 18.6084C13.3081 18.6316 13.1748 18.7471 13.129 18.9042C13.0287 19.2515 12.8908 19.5868 12.7179 19.9042C12.6393 20.0476 12.6518 20.2238 12.75 20.3546L13.6749 21.5883L12.4192 22.8424Z" fill="black"/>
<path d="M7.91666 11.6666H8.74999V12.5H7.91666V11.6666Z" fill="black"/>
<path d="M3.9144 13.6696L4.50359 13.0804L5.09278 13.6696L4.50359 14.259L3.9144 13.6696Z" fill="black"/>
<path d="M2.5 17.0833H3.33333V17.9166H2.5V17.0833Z" fill="black"/>
<path d="M3.91418 21.33L4.50338 20.7406L5.09257 21.33L4.50338 21.9192L3.91418 21.33Z" fill="black"/>
<path d="M7.91666 22.5H8.74999V23.3333H7.91666V22.5Z" fill="black"/>
<path d="M11.5739 21.3302L12.1631 20.741L12.7523 21.3302L12.1631 21.9193L11.5739 21.3302Z" fill="black"/>
<path d="M13.3333 17.0833H14.1666V17.9166H13.3333V17.0833Z" fill="black"/>
<path d="M11.5741 13.6701L12.1633 13.0807L12.7527 13.6701L12.1633 14.2593L11.5741 13.6701Z" fill="black"/>
<path d="M8.33333 14.1667C6.49231 14.1667 5 15.6591 5 17.5001C5 19.3411 6.49231 20.8334 8.33333 20.8334C10.1744 20.8334 11.6667 19.3411 11.6667 17.5001C11.6646 15.6601 10.1733 14.1688 8.33333 14.1667ZM8.33333 20.0001C6.95272 20.0001 5.83333 18.8807 5.83333 17.5001C5.83333 16.1195 6.95272 15.0001 8.33333 15.0001C9.71395 15.0001 10.8333 16.1195 10.8333 17.5001C10.8319 18.8803 9.71354 19.9987 8.33333 20.0001Z" fill="black"/>
<path d="M10.8333 2.5H13.3333V3.33333H10.8333V2.5Z" fill="black"/>
<path d="M14.1667 2.5H15.8333V3.33333H14.1667V2.5Z" fill="black"/>
<path d="M10.8333 5H17.5V5.83334H10.8333V5Z" fill="black"/>
<path d="M10.8333 8.33337H21.6667V9.1667H10.8333V8.33337Z" fill="black"/>
<path d="M16.6667 10.8333H21.6667V11.6666H16.6667V10.8333Z" fill="black"/>
<path d="M16.6667 13.3334H21.6667V14.1667H16.6667V13.3334Z" fill="black"/>
<path d="M16.6667 15.8334H21.6667V16.6667H16.6667V15.8334Z" fill="black"/>
</svg>
